<svg xmlns="http://www.w3.org/2000/svg" viewBox="0 0 512 512" role="img" aria-labelledby="radarMarkTitle radarMarkDescription">
  <title id="radarMarkTitle">Símbolo RADAR PDDE</title>
  <desc id="radarMarkDescription">Letra R estilizada em tons de violeta, com faixa ascendente e gráfico de barras.</desc>
  <defs>
    <linearGradient id="upper" x1="78" y1="62" x2="410" y2="305" gradientUnits="userSpaceOnUse">
      <stop offset="0" stop-color="#6f46ff"/>
      <stop offset="0.52" stop-color="#aa87ff"/>
      <stop offset="1" stop-color="#6f46ff"/>
    </linearGradient>
    <linearGradient id="swoop" x1="70" y1="405" x2="365" y2="190" gradientUnits="userSpaceOnUse">
      <stop offset="0" stop-color="#1a075e"/>
      <stop offset="0.58" stop-color="#2c117f"/>
      <stop offset="1" stop-color="#16034f"/>
    </linearGradient>
    <linearGradient id="leg" x1="250" y1="292" x2="439" y2="466" gradientUnits="userSpaceOnUse">
      <stop offset="0" stop-color="#32108c"/>
      <stop offset="1" stop-color="#4524b2"/>
    </linearGradient>
    <linearGradient id="bar" x1="0" y1="0" x2="0" y2="1">
      <stop offset="0" stop-color="#efe8ff"/>
      <stop offset="0.55" stop-color="#aa83ff"/>
      <stop offset="1" stop-color="#5e36e8"/>
    </linearGradient>
    <filter id="softShadow" x="-20%" y="-20%" width="140%" height="140%">
      <feDropShadow dx="0" dy="8" stdDeviation="9" flood-color="#241064" flood-opacity=".18"/>
    </filter>
  </defs>
  <g filter="url(#softShadow)">
    <path fill="url(#upper)" d="M55 58h248c101 0 161 59 161 151 0 75-38 126-103 151l-78-72c49-8 76-34 76-78 0-42-29-70-80-70H159l-42-33z"/>
    <path fill="url(#upper)" d="M53 165h224c51 0 82 20 82 57 0 40-33 61-87 61H158L53 367c18-62 54-112 106-146H53z" opacity=".98"/>
    <path fill="url(#leg)" d="M274 286l184 168H332L213 344z"/>
    <path fill="url(#bar)" d="M84 454V368c0-12 8-20 20-20h28v106z"/>
    <path fill="url(#bar)" d="M148 454V326c0-12 8-20 20-20h31v148z"/>
    <path fill="url(#bar)" d="M216 454V278c0-12 8-20 20-20h33v196z"/>
    <path fill="url(#swoop)" d="M63 410c75-88 149-131 238-137 34-3 64-14 87-34-18 72-68 119-146 140-59 16-108 44-147 75H63z"/>
    <path fill="none" stroke="#fff" stroke-width="10" stroke-linecap="round" d="M83 374c59-61 119-91 181-97 48-5 84-20 109-49" opacity=".95"/>
  </g>
</svg>
